<svg width="16" height="14" viewBox="0 0 16 14" fill="none" xmlns="http://www.w3.org/2000/svg">
<path d="M8 0.4375C4.55 0.4375 1.75 2.8875 1.75 5.90625C1.75 8.925 4.55 11.375 8 11.375C11.45 11.375 14.25 8.925 14.25 5.90625C14.25 2.8875 11.45 0.4375 8 0.4375ZM8 10.2812C5.25 10.2812 3 8.3125 3 5.90625C3 3.5 5.25 1.53125 8 1.53125C10.75 1.53125 13 3.5 13 5.90625C13 8.3125 10.75 10.2812 8 10.2812Z" fill="#4D5357"/>
<path d="M6.3501 4.22187C6.5751 4.00312 6.8501 3.82812 7.1751 3.71875C7.5001 3.5875 7.8251 3.52188 8.1751 3.52188C8.6001 3.52188 9.0251 3.60937 9.3751 3.80625C9.7251 3.98125 10.0501 4.24375 10.2751 4.52813L11.1751 3.9375C10.8251 3.54375 10.4001 3.19375 9.9001 2.975C9.3751 2.73438 8.8251 2.625 8.2001 2.625C7.7001 2.625 7.2001 2.7125 6.7501 2.8875C6.3001 3.0625 5.9001 3.30312 5.5751 3.5875C5.2501 3.89375 4.9751 4.22188 4.7751 4.6375C4.5751 5.03125 4.4751 5.46875 4.4751 5.90625C4.4751 6.36562 4.5751 6.78125 4.7751 7.175C4.9751 7.56875 5.2251 7.91875 5.5751 8.225C5.9001 8.53125 6.3001 8.75 6.7501 8.925C7.2001 9.1 7.6751 9.1875 8.2001 9.1875C8.8251 9.1875 9.4001 9.07813 9.9001 8.8375C10.4001 8.59688 10.8501 8.26875 11.1751 7.875L10.2751 7.28437C10.0501 7.59062 9.7501 7.83125 9.3751 8.00625C9.0001 8.18125 8.6001 8.26875 8.1751 8.26875C7.8251 8.26875 7.5001 8.20313 7.1751 8.07188C6.8751 7.94063 6.6001 7.76562 6.3501 7.56875C6.1251 7.35 5.9251 7.10938 5.8001 6.825C5.6751 6.54063 5.6001 6.23438 5.6001 5.90625C5.6001 5.57812 5.6751 5.27187 5.8001 4.9875C5.9251 4.70312 6.1251 4.44062 6.3501 4.22187Z" fill="#4D5357"/>
</svg>
